<svg id="undraw_secure_login_pdn4" xmlns="http://www.w3.org/2000/svg" width="666.184" height="463.5" viewBox="0 0 666.184 463.5">
  <ellipse id="Ellipse_93" data-name="Ellipse 93" cx="132.733" cy="10.081" rx="132.733" ry="10.081" transform="translate(0 443.338)" fill="#e6e6e6"/>
  <path id="Path_384" data-name="Path 384" d="M324.272,283.1c23.1-9.825,51.87-3.6,79.968.72.261-5.232,3.431-11.6.111-15.25-4.033-4.435-3.662-9.094-1.235-13.78,6.206-11.984-2.686-24.735-11.664-35.338a19.884,19.884,0,0,0-16.6-6.966l-16.632,1.188a19.918,19.918,0,0,0-17.686,14.236h0c-3.971,5.4-6.1,10.787-4.759,16.145-5.948,4.065-6.948,8.972-4.275,14.5,2.267,3.483,2.242,6.873-.1,10.17a46.953,46.953,0,0,0-6.981,13.867Z" transform="translate(-222.814 -180.26)" fill="#2f2e41"/>
  <path id="Path_385" data-name="Path 385" d="M885.083,645.26h-470.8A15.786,15.786,0,0,1,398.5,629.474h0q256-29.752,502.368,0h0a15.786,15.786,0,0,1-15.786,15.786Z" transform="translate(-234.684 -244.573)" fill="#2f2e41"/>
  <path id="Path_386" data-name="Path 386" d="M900.868,569.6,398.5,568.669,456.723,470.7l.279-.464V254.332a19.954,19.954,0,0,1,19.957-19.955H819.626a19.954,19.954,0,0,1,19.956,19.957v217.39Z" transform="translate(-234.684 -183.768)" fill="#3f3d56"/>
  <path id="Path_387" data-name="Path 387" d="M490.113,250.957a6.507,6.507,0,0,0-6.5,6.5V454.319a6.508,6.508,0,0,0,6.5,6.5H836.478a6.508,6.508,0,0,0,6.5-6.5V257.457a6.508,6.508,0,0,0-6.5-6.5Z" transform="translate(-248.295 -186.419)" fill="#fff"/>
  <path id="Path_388" data-name="Path 388" d="M489.133,531.718a2.793,2.793,0,0,0-2.531,1.621l-17.94,39a2.786,2.786,0,0,0,2.53,3.95H848.465a2.785,2.785,0,0,0,2.491-4.032l-19.5-39a2.772,2.772,0,0,0-2.491-1.54Z" transform="translate(-245.864 -231.319)" fill="#2f2e41"/>
  <circle id="Ellipse_94" data-name="Ellipse 94" cx="4.179" cy="4.179" r="4.179" transform="translate(409.429 52.93)" fill="#fff"/>
  <path id="Path_389" data-name="Path 389" d="M650.313,593.619a2.79,2.79,0,0,0-2.69,2.061l-4.5,16.715a2.785,2.785,0,0,0,2.69,3.51H731.4a2.785,2.785,0,0,0,2.632-3.7l-5.786-16.715a2.787,2.787,0,0,0-2.633-1.874Z" transform="translate(-273.789 -241.218)" fill="#2f2e41"/>
  <path id="Path_390" data-name="Path 390" d="M647.165,337.135v3.714H264.306l.288-.464v-3.25Z" transform="translate(-42.267 -53.914)" fill="#2f2e41"/>
  <circle id="Ellipse_95" data-name="Ellipse 95" cx="65.001" cy="65.001" r="65.001" transform="translate(529.217 0)" fill="#038242"/>
  <path id="Path_391" data-name="Path 391" d="M931.93,277.622H878.072a3.718,3.718,0,0,1-3.714-3.714v-32.5a3.718,3.718,0,0,1,3.714-3.714H931.93a3.718,3.718,0,0,1,3.714,3.714v32.5a3.718,3.718,0,0,1-3.714,3.714Zm-53.858-36.215v32.5h53.861l0-32.5Z" transform="translate(-310.783 -184.298)" fill="#fff"/>
  <path id="Path_392" data-name="Path 392" d="M924.367,235.75h-33.43V220.893c0-10.761,7.03-18.572,16.715-18.572s16.715,7.811,16.715,18.572Zm-29.715-3.714h26V220.893c0-8.748-5.346-14.857-13-14.857s-13,6.11-13,14.857Z" transform="translate(-313.434 -178.642)" fill="#fff"/>
  <circle id="Ellipse_96" data-name="Ellipse 96" cx="3.714" cy="3.714" r="3.714" transform="translate(590.505 68.716)" fill="#fff"/>
  <path id="Path_393" data-name="Path 393" d="M804.92,406.757H537.236a4.963,4.963,0,0,1-4.957-4.957V335.4a4.963,4.963,0,0,1,4.957-4.957H804.92a4.963,4.963,0,0,1,4.957,4.957v66.4A4.963,4.963,0,0,1,804.92,406.757ZM537.236,332.424a2.978,2.978,0,0,0-2.974,2.974v66.4a2.978,2.978,0,0,0,2.974,2.974H804.92a2.978,2.978,0,0,0,2.974-2.974V335.4a2.978,2.978,0,0,0-2.974-2.974Z" transform="translate(-256.078 -199.131)" fill="#e6e6e6"/>
  <circle id="Ellipse_97" data-name="Ellipse 97" cx="20.193" cy="20.193" r="20.193" transform="translate(302.558 146.727)" fill="#e6e6e6"/>
  <path id="Path_394" data-name="Path 394" d="M642.562,356.8a3.365,3.365,0,1,0,0,6.731H801.218a3.365,3.365,0,0,0,0-6.731Z" transform="translate(-273.176 -203.347)" fill="#e6e6e6"/>
  <path id="Path_395" data-name="Path 395" d="M642.562,380.842a3.365,3.365,0,1,0,0,6.731h68.27a3.365,3.365,0,1,0,0-6.731Z" transform="translate(-273.176 -207.191)" fill="#e6e6e6"/>
  <path id="Path_396" data-name="Path 396" d="M457.483,376.97,408,403.278l-.626-21.923c16.151-2.7,31.517-7.391,45.725-15.033l5.175-12.786a8.668,8.668,0,0,1,14.732-2.25h0a8.668,8.668,0,0,1-.763,11.819Z" transform="translate(-236.103 -201.958)" fill="#ffb8b8"/>
  <path id="Path_397" data-name="Path 397" d="M323.033,556.952h0a9.723,9.723,0,0,1,1.234-7.866l10.87-16.682a19,19,0,0,1,24.644-6.5h0c-4.568,7.776-3.931,14.6,1.578,20.526a98.811,98.811,0,0,0-23.469,16,9.723,9.723,0,0,1-14.857-5.476Z" transform="translate(-222.561 -230.048)" fill="#2f2e41"/>
  <path id="Path_398" data-name="Path 398" d="M452.344,523.392h0a18.653,18.653,0,0,1-15.853,9.055l-72.214.547-3.132-18.165,31.945-9.4-26.934-20.67L395.6,450.313l53.471,49.837A18.652,18.652,0,0,1,452.344,523.392Z" transform="translate(-228.71 -218.3)" fill="#2f2e41"/>
  <path id="Path_399" data-name="Path 399" d="M345.32,638.08H328.407C313.223,534,297.766,429.621,343.44,390.664l53.868,8.769-6.89,45.725-30.066,34.45Z" transform="translate(-221.027 -208.761)" fill="#2f2e41"/>
  <path id="Path_400" data-name="Path 400" d="M362.513,707.549h0a9.723,9.723,0,0,1-7.866-1.234l-18.363-2.468a19,19,0,0,1-6.5-24.643h0c7.776,4.568,14.6,3.931,20.526-1.579,4.189,8.457,11.09,7.942,17.681,15.067a9.723,9.723,0,0,1-5.475,14.858Z" transform="translate(-223.355 -254.652)" fill="#2f2e41"/>
  <path id="Path_401" data-name="Path 401" d="M393.21,299.675l-31.319-7.516c5.2-10.647,5.63-22.494,3.132-35.077l21.3-.626C386.987,272.1,389.005,286.72,393.21,299.675Z" transform="translate(-228.83 -187.299)" fill="#ffb8b8"/>
  <path id="Path_402" data-name="Path 402" d="M398.255,402.076c-22.8,15.536-38.908.532-51.2-22.618,1.708-14.165-1.058-31.117-6.18-49.537a33.719,33.719,0,0,1,20.587-40.661h0L388.4,300.536c22.87,18.642,27.372,38.834,18.791,60.132Z" transform="translate(-225.267 -192.545)" fill="#038242"/>
  <path id="Path_403" data-name="Path 403" d="M320.622,321.653l-25.055,13.154,44.472,26.308,6.188,15.264a8.1,8.1,0,0,1-4.863,10.7h0a8.1,8.1,0,0,1-10.721-7.178l-.626-10.638L273.494,350.6a13.217,13.217,0,0,1-8.294-8.074h0a13.217,13.217,0,0,1,4.959-15.376l45.452-31.182Z" transform="translate(-213.242 -193.618)" fill="#ffb8b8"/>
  <path id="Path_404" data-name="Path 404" d="M354.707,322.9c-10.449-4.579-19.951.4-31.945,4.385l-1.879-33.2c11.909-6.347,23.264-8.059,33.824-3.132Z" transform="translate(-222.272 -192.359)" fill="#038242"/>
  <circle id="Ellipse_98" data-name="Ellipse 98" cx="19.996" cy="19.996" r="19.996" transform="translate(124.939 45.608)" fill="#ffb8b8"/>
  <path id="Path_405" data-name="Path 405" d="M396.024,245.808c-19.8,1.939-34.883-1.3-44.524-10.518v-7.424h42.844Z" transform="translate(-227.168 -182.727)" fill="#2f2e41"/>
</svg>
