<svg xmlns="http://www.w3.org/2000/svg" width="190.003" height="227.74" viewBox="0 0 190.003 227.74">
  <g id="user" transform="translate(0 0)">
    <path id="Path_491" data-name="Path 491" d="M141.885,109.7a53.074,53.074,0,0,0,38.785-16.07A53.072,53.072,0,0,0,196.738,54.85a53.081,53.081,0,0,0-16.07-38.783A53.086,53.086,0,0,0,141.885,0,53.072,53.072,0,0,0,103.1,16.069,53.076,53.076,0,0,0,87.032,54.85,53.073,53.073,0,0,0,103.1,93.634,53.086,53.086,0,0,0,141.885,109.7Zm0,0" transform="translate(-48.32)" fill="#f3f3f3"/>
    <path id="Path_492" data-name="Path 492" d="M189.542,312.429a135.486,135.486,0,0,0-1.845-14.39,113.376,113.376,0,0,0-3.539-14.468,71.462,71.462,0,0,0-5.947-13.493,50.919,50.919,0,0,0-8.969-11.688,39.544,39.544,0,0,0-12.884-8.1,44.526,44.526,0,0,0-16.447-2.976c-2.325,0-4.573.954-8.915,3.781-2.672,1.743-5.8,3.758-9.287,5.987a53.216,53.216,0,0,1-12.017,5.294,46.662,46.662,0,0,1-29.4,0,53.091,53.091,0,0,1-12.008-5.292c-3.456-2.208-6.583-4.224-9.3-5.991-4.337-2.827-6.587-3.781-8.912-3.781a44.469,44.469,0,0,0-16.445,2.98,39.511,39.511,0,0,0-12.885,8.1,50.925,50.925,0,0,0-8.966,11.686,71.6,71.6,0,0,0-5.947,13.5A113.649,113.649,0,0,0,2.3,298.039a135.006,135.006,0,0,0-1.845,14.4c-.3,4.358-.455,8.88-.455,13.448,0,11.888,3.779,21.512,11.231,28.61,7.36,7,17.1,10.557,28.942,10.557H149.83c11.843,0,21.578-3.551,28.94-10.557C186.224,347.4,190,337.774,190,325.881c0-4.589-.156-9.115-.46-13.452Zm0,0" transform="translate(0 -137.31)" fill="#f3f3f3"/>
  </g>
</svg>
